<svg version="1.2" xmlns="http://www.w3.org/2000/svg" viewBox="0 0 1024 1024">
    <path class="s0" d="m610.74 374c13.65 6.83 99.77 98.18 112.29 115.15 42.64 56.6 60.82 127.92 50.46 198.02-5.28 34.04-18.62 68.77-37.38 97.66-7.55 11.74-16 22.89-25.27 33.32-31.87 35.66-68.37 68.57-102.34 102.32-20.14 20.02-55.12 58.79-76.45 73.4-7.9 5.42-19.63 7.91-29.04 5.82-6.9-1.53-14.52-7.69-19.82-12.26-27.04-23.25-52.18-50.88-77.56-76.05-30.92-30.65-63.57-60.52-92.47-93.03-10.09-11.36-18.84-23.56-26.94-36.37-11.44-20.16-21.77-40.35-28.49-62.65-18.46-61.3-13.3-127.33 17.06-183.95 28.29 24.19 53.73 53.35 79.92 79.84 11.47 11.6 27.5 23.64 36.25 37.41 4.95 7.79 6.53 20.31 8.88 29.24 2.8 10.64 7.02 19.23 13.47 28.2 10.19 14.16 75.82 82.57 88.78 89.37 4.53 2.37 11.37 2.56 16.15 0.92 5.08-1.72 9.78-5.51 13.73-9.02 11.43-10.2 21.26-22.61 32.1-33.48 12.3-12.33 26.01-23.55 37.41-36.71 5.36-6.2 10.11-12.67 13.98-19.92 14.52-27.55 17.5-59.75 8.25-89.49-13.78-44.71-39.4-59.05-77.87-79.4q-0.53-4.36-0.68-8.73c-0.53-19.14-3.09-81.95 0.89-97.71 0.86-3.4 2.63-4.99 5.32-7.05 7.79-5.98 17.85-9.42 26.37-14.35 12.84-7.45 22.89-19.78 33-30.5z" fill="#43e4f9" />
    <path class="s0" d="m499.47 26.59c40.14-2.99 83.32 5.52 120.04 21.67 70.58 31.36 125.7 89.65 153.06 161.88 18.67 49.02 22.47 108.6 8.46 159.32-5.07 18.37-12.97 35.51-20.8 52.82-24.24-28.31-51.24-54.79-77.84-80.89-14.55-14.27-31.44-28.55-43.64-44.87-7.75-10.35-8.65-27.84-12.96-39.99-3.77-10.62-10.21-20.68-17.23-29.46-20.33-25.48-49.65-42.49-82.23-45.94-33.02-3.68-66.14 6.09-91.88 27.1-27.69 22.94-41.44 55.45-44.82 90.62q-0.03 3.13-0.01 6.27c0.32 38.08 19.98 76.7 52.66 97.05 9.26 5.77 22.54 10.19 29.97 18.2 2.71 2.92 3.74 6.11 4.32 9.95 1.89 12.43 0.74 26.38 0.7 39.02l-0.03 68.71c-31.86 15.63-46.56 22.86-68.62 51.24q-2.07-1.59-4.06-3.28c-18.39-15.53-35.2-35.64-52.29-52.74-66.6-66.66-108.76-110.53-116.56-210.52-5.61-71.99 22.08-145.55 68.71-199.84 50.54-58.84 118.44-90.26 195.05-96.32z" fill="#43e4f9" />
</svg>